{"title":"DISNEY-PIXARS-THE INCREDIBLES-2004- H.264 AAC MP4 BY STIG","uid":5033763,"size":945513867,"categoryP":"video","categoryS":"movies","magnet":"?xt=urn:btih:35e760c0f2008557e6acb537247cf66291f74a0b&amp;dn=DISNEY-PIXARS-THE+INCREDIBLES-2004-+H.264+AAC+MP4+BY+STIG&amp;tr=udp%3A%2F%2Ftracker.openbittorrent.com%3A80&amp;tr=udp%3A%2F%2Fopen.demonii.com%3A1337&amp;tr=udp%3A%2F%2Ftracker.coppersurfer.tk%3A6969&amp;tr=udp%3A%2F%2Fexodus.desync.com%3A6969","seeders":4,"leechers":1,"uploader":"alanwatson","files":4,"time":1249016861,"description":"From the Academy Award-winning creators of Toy Story and Finding Nemo, comes this hilarious animated adventure about a team of superheroes.\n\nBob Parr was once known as Mr Incredible, the world's greatest superhero. Fifteen years later, Bob and his wife, Helen (Formerly Elastigirl), have adopted civillian identities and retreated to the suburbs to lead &quot;normal lives&quot; with their three children. Now Bob's a clock-punching insurance claims adjuster fighting boredom and an ever-bulging waistline. However, Bob is thrown back into the world of super-heroism when he receives a mysterious communication summoning him to a remote island for a top-secret mission.\n\nYet again, Pixar continue their trend for making ground-breaking animated films, stretching the boundries laid down by their previous movies.\n\nFormat : MPEG-4\nFormat profile : Base Media / Version 2\nCodec ID : mp42\nFile size : 900 MiB\nDuration : 1h 50mn\nOverall bit rate : 1 138 Kbps\nEncoded date : UTC 2009-07-30 17:12:01\nTagged date : UTC 2009-07-30 21:20:36\nWriting application : HandBrake 0.9.3 2008112300\n\nVideo\nID : 1\nFormat : AVC\nFormat/Info : Advanced Video Codec\nFormat profile : &lt;a class=&quot;__cf_email__&quot; href=&quot;/cdn-cgi/l/email-protection&quot; data-cfemail=&quot;165b777f78565a223826&quot;&gt;[email&amp;#160;protected]&lt;/a&gt;&lt;script cf-hash='f9e31' type=&quot;text/javascript&quot;&gt;\n/* &lt;![CDATA[ */!function(){try{var t=&quot;currentScript&quot;in document?document.currentScript:function(){for(var t=document.getElementsByTagName(&quot;script&quot;),e=t.length;e--;)if(t[e].getAttribute(&quot;cf-hash&quot;))return t[e]}();if(t&amp;&amp;t.previousSibling){var e,r,n,i,c=t.previousSibling,a=c.getAttribute(&quot;data-cfemail&quot;);if(a){for(e=&quot;&quot;,r=parseInt(a.substr(0,2),16),n=2;a.length-n;n+=2)i=parseInt(a.substr(n,2),16)^r,e+=String.fromCharCode(i);e=document.createTextNode(e),c.parentNode.replaceChild(e,c)}}}catch(u){}}();/* ]]&gt; */&lt;/script&gt;\nFormat settings, CABAC : Yes\nFormat settings, ReFrames : 3 frames\nCodec ID : avc1\nCodec ID/Info : Advanced Video Coding\nDuration : 1h 50mn\nBit rate mode : Variable\nBit rate : 974 Kbps\nWidth : 720 pixels\nHeight : 424 pixels\nDisplay aspect ratio : 2.415\nFrame rate mode : Variable\nFrame rate : 25.000 fps\nMinimum frame rate : 12.500 fps\nMaximum frame rate : 84.806 fps\nResolution : 24 bits\nColorimetry : 4:2:0\nScan type : Progressive\nBits/(Pixel*Frame) : 0.128\nStream size : 771 MiB (86%)\nWriting library : x264 core 65\n\nAudio\nID : 2\nFormat : AAC\nFormat/Info : Advanced Audio Codec\nFormat version : Version 4\nFormat profile : LC\nFormat settings, SBR : No\nCodec ID : 40\nDuration : 1h 50mn\nBit rate mode : Variable\nBit rate : 160 Kbps\nMaximum bit rate : 246 Kbps\nChannel(s) : 2 channels\nChannel positions : L R\nSampling rate : 48.0 KHz\nResolution : 16 bits\nStream size : 127 MiB (14%)\nLanguage : English\nEncoded date : UTC 2009-07-30 17:12:02\nTagged date : UTC 2009-07-30 21:20:31","torrent":{"xt":"urn:btih:35e760c0f2008557e6acb537247cf66291f74a0b","amp;dn":"DISNEY-PIXARS-THE+INCREDIBLES-2004-+H.264+AAC+MP4+BY+STIG","amp;tr":["udp%3A%2F%2Ftracker.openbittorrent.com%3A80","udp%3A%2F%2Fopen.demonii.com%3A1337","udp%3A%2F%2Ftracker.coppersurfer.tk%3A6969","udp%3A%2F%2Fexodus.desync.com%3A6969"],"infoHash":"35e760c0f2008557e6acb537247cf66291f74a0b","infoHashBuffer":{"type":"Buffer","data":[53,231,96,192,242,0,133,87,230,172,181,55,36,124,246,98,145,247,74,11]},"announce":[],"urlList":[]}}